<svg width="180" height="60" viewBox="0 0 180 60" fill="none" xmlns="http://www.w3.org/2000/svg">
<rect x="0.75" y="0.75" width="178.5" height="58.5" rx="8.25" fill="black"/>
<rect x="0.75" y="0.75" width="178.5" height="58.5" rx="8.25" stroke="#A6A6A6" stroke-width="1.5"/>
<path d="M26.7076 29.1925L12.1348 45.0089C12.1361 45.0117 12.1361 45.0159 12.1375 45.0187C12.5851 46.7361 14.118 48 15.9385 48C16.6666 48 17.3496 47.7984 17.9354 47.4457L17.982 47.4177L34.3848 37.739L26.7076 29.1925Z" fill="#EA4335"/>
<path d="M41.4498 26.4993L41.4361 26.4895L34.3543 22.2918L26.376 29.552L34.383 37.7373L41.4265 33.5817C42.6611 32.8986 43.5001 31.5675 43.5001 30.0335C43.5001 28.5078 42.6734 27.1837 41.4498 26.4993Z" fill="#FBBC04"/>
<path d="M12.1341 14.99C12.0465 15.3203 12 15.6674 12 16.0258V43.9745C12 44.3329 12.0465 44.68 12.1355 45.0089L27.2079 29.597L12.1341 14.99Z" fill="#4285F4"/>
<path d="M26.8147 29.9999L34.3564 22.289L17.9728 12.5753C17.3774 12.21 16.6821 12 15.9388 12C14.1184 12 12.5827 13.2667 12.1352 14.9855C12.1352 14.9869 12.1338 14.9883 12.1338 14.9897L26.8147 29.9999Z" fill="#34A853"/>
<path d="M65.415 16.565C65.415 18.065 64.97 19.26 64.08 20.15C63.08 21.21 61.765 21.74 60.135 21.74C58.575 21.74 57.255 21.2 56.175 20.12C55.095 19.04 54.555 17.71 54.555 16.13C54.555 14.55 55.095 13.22 56.175 12.14C57.255 11.06 58.575 10.52 60.135 10.52C60.925 10.52 61.67 10.66 62.37 10.94C63.07 11.22 63.645 11.615 64.095 12.125L63.105 13.115C62.775 12.715 62.345 12.405 61.815 12.185C61.295 11.955 60.735 11.84 60.135 11.84C58.965 11.84 57.975 12.245 57.165 13.055C56.365 13.875 55.965 14.9 55.965 16.13C55.965 17.36 56.365 18.385 57.165 19.205C57.975 20.015 58.965 20.42 60.135 20.42C61.205 20.42 62.095 20.12 62.805 19.52C63.515 18.92 63.925 18.095 64.035 17.045H60.135V15.755H65.34C65.39 16.035 65.415 16.305 65.415 16.565ZM73.3617 10.76V12.08H68.4717V15.485H72.8817V16.775H68.4717V20.18H73.3617V21.5H67.0917V10.76H73.3617ZM78.8816 12.08V21.5H77.5016V12.08H74.5016V10.76H81.8816V12.08H78.8816ZM87.9981 21.5H86.6181V10.76H87.9981V21.5ZM93.823 12.08V21.5H92.443V12.08H89.443V10.76H96.823V12.08H93.823ZM111.782 16.13C111.782 17.72 111.252 19.05 110.192 20.12C109.122 21.2 107.812 21.74 106.262 21.74C104.702 21.74 103.392 21.2 102.332 20.12C101.272 19.05 100.742 17.72 100.742 16.13C100.742 14.54 101.272 13.21 102.332 12.14C103.392 11.06 104.702 10.52 106.262 10.52C107.822 10.52 109.132 11.065 110.192 12.155C111.252 13.225 111.782 14.55 111.782 16.13ZM102.152 16.13C102.152 17.37 102.542 18.395 103.322 19.205C104.112 20.015 105.092 20.42 106.262 20.42C107.432 20.42 108.407 20.015 109.187 19.205C109.977 18.405 110.372 17.38 110.372 16.13C110.372 14.88 109.977 13.855 109.187 13.055C108.407 12.245 107.432 11.84 106.262 11.84C105.092 11.84 104.112 12.245 103.322 13.055C102.542 13.865 102.152 14.89 102.152 16.13ZM114.79 21.5H113.41V10.76H115.09L120.31 19.115H120.37L120.31 17.045V10.76H121.69V21.5H120.25L114.79 12.74H114.73L114.79 14.81V21.5Z" fill="white"/>
<path d="M140.277 47.1145H142.72V30.5972H140.277V47.1145ZM162.283 36.5469L159.482 43.7082H159.399L156.492 36.5469H153.86L158.219 46.5556L155.735 52.1234H158.282L165 36.5469H162.283ZM148.428 45.2383C147.626 45.2383 146.511 44.8353 146.511 43.8351C146.511 42.5614 147.9 42.0725 149.101 42.0725C150.174 42.0725 150.681 42.3064 151.333 42.6248C151.143 44.1548 149.838 45.2383 148.428 45.2383ZM148.722 36.1862C146.953 36.1862 145.12 36.9724 144.364 38.7151L146.532 39.6281C146.995 38.7151 147.858 38.4165 148.764 38.4165C150.028 38.4165 151.312 39.1815 151.333 40.5425V40.7116C150.891 40.4566 149.944 40.0747 148.785 40.0747C146.448 40.0747 144.068 41.3709 144.068 43.7928C144.068 46.0033 145.985 47.4276 148.132 47.4276C149.775 47.4276 150.681 46.6837 151.249 45.8117H151.333V47.0867H153.691V40.7539C153.691 37.822 151.523 36.1862 148.722 36.1862ZM133.623 38.5579H130.148V32.8962H133.623C135.45 32.8962 136.487 34.4223 136.487 35.7264C136.487 37.0067 135.45 38.5579 133.623 38.5579ZM133.56 30.5972H127.706V47.1145H130.148V40.8569H133.56C136.268 40.8569 138.93 38.8777 138.93 35.7264C138.93 32.5752 136.268 30.5972 133.56 30.5972ZM101.637 45.2409C99.9497 45.2409 98.537 43.8153 98.537 41.8571C98.537 39.8779 99.9497 38.4297 101.637 38.4297C103.304 38.4297 104.611 39.8779 104.611 41.8571C104.611 43.8153 103.304 45.2409 101.637 45.2409ZM104.443 37.4718H104.358C103.81 36.8125 102.756 36.2166 101.427 36.2166C98.6417 36.2166 96.0898 38.6847 96.0898 41.8571C96.0898 45.007 98.6417 47.4554 101.427 47.4554C102.756 47.4554 103.81 46.8595 104.358 46.1777H104.443V46.9876C104.443 49.1374 103.304 50.2869 101.469 50.2869C99.9707 50.2869 99.0424 49.2008 98.6627 48.2851L96.5324 49.1796C97.1438 50.67 98.7687 52.5 101.469 52.5C104.337 52.5 106.763 50.7969 106.763 46.6467V36.5562H104.443V37.4718ZM108.451 47.1145H110.898V30.5959H108.451V47.1145ZM114.504 41.6655C114.441 39.4947 116.171 38.3875 117.415 38.3875C118.386 38.3875 119.209 38.8763 119.482 39.5792L114.504 41.6655ZM122.098 39.792C121.635 38.5368 120.221 36.2166 117.331 36.2166C114.462 36.2166 112.079 38.4932 112.079 41.836C112.079 44.9859 114.441 47.4554 117.605 47.4554C120.158 47.4554 121.635 45.8804 122.246 44.9648L120.348 43.6871C119.715 44.6239 118.85 45.2409 117.605 45.2409C116.361 45.2409 115.474 44.6662 114.905 43.5391L122.351 40.4301L122.098 39.792ZM62.7751 37.9409V40.3244H68.4275C68.2586 41.6655 67.8161 42.6446 67.1418 43.3251C66.3182 44.1561 65.0311 45.0718 62.7751 45.0718C59.2936 45.0718 56.5728 42.2403 56.5728 38.7283C56.5728 35.2151 59.2936 32.3849 62.7751 32.3849C64.6527 32.3849 66.0236 33.1301 67.0357 34.088L68.7025 32.406C67.2884 31.0438 65.4121 30 62.7751 30C58.0079 30 54 33.9176 54 38.7283C54 43.5391 58.0079 47.4554 62.7751 47.4554C65.348 47.4554 67.2884 46.6031 68.8072 45.007C70.3693 43.4321 70.8537 41.2189 70.8537 39.4299C70.8537 38.8763 70.8118 38.3663 70.7267 37.9409H62.7751ZM77.2812 45.2409C75.5935 45.2409 74.1375 43.8364 74.1375 41.836C74.1375 39.8131 75.5935 38.4297 77.2812 38.4297C78.9677 38.4297 80.4236 39.8131 80.4236 41.836C80.4236 43.8364 78.9677 45.2409 77.2812 45.2409ZM77.2812 36.2166C74.2004 36.2166 71.6904 38.579 71.6904 41.836C71.6904 45.0718 74.2004 47.4554 77.2812 47.4554C80.3608 47.4554 82.8708 45.0718 82.8708 41.836C82.8708 38.579 80.3608 36.2166 77.2812 36.2166ZM89.4751 45.2409C87.7873 45.2409 86.3314 43.8364 86.3314 41.836C86.3314 39.8131 87.7873 38.4297 89.4751 38.4297C91.1628 38.4297 92.6175 39.8131 92.6175 41.836C92.6175 43.8364 91.1628 45.2409 89.4751 45.2409ZM89.4751 36.2166C86.3955 36.2166 83.8855 38.579 83.8855 41.836C83.8855 45.0718 86.3955 47.4554 89.4751 47.4554C92.5546 47.4554 95.0646 45.0718 95.0646 41.836C95.0646 38.579 92.5546 36.2166 89.4751 36.2166Z" fill="white"/>
</svg>
