<svg width="180" height="60" viewBox="0 0 180 60" fill="none" xmlns="http://www.w3.org/2000/svg">
<rect x="0.75" y="0.75" width="178.5" height="58.5" rx="8.25" fill="black"/>
<rect x="0.75" y="0.75" width="178.5" height="58.5" rx="8.25" stroke="#A6A6A6" stroke-width="1.5"/>
<path d="M37.0568 31.1447C37.075 29.7649 37.4504 28.4119 38.1481 27.2118C38.8458 26.0116 39.8431 25.0033 41.0472 24.2806C40.2823 23.214 39.2731 22.3362 38.0999 21.717C36.9267 21.0978 35.6218 20.7542 34.2888 20.7135C31.4453 20.4221 28.6887 22.3747 27.2396 22.3747C25.7626 22.3747 23.5316 20.7424 21.1292 20.7907C19.5753 20.8397 18.0609 21.2808 16.7335 22.0712C15.4062 22.8615 14.3111 23.974 13.5551 25.3004C10.2803 30.836 12.723 38.9714 15.8601 43.446C17.4296 45.6371 19.264 48.0846 21.6642 47.9978C24.0129 47.9027 24.8902 46.5356 27.7253 46.5356C30.5341 46.5356 31.3571 47.9978 33.8061 47.9426C36.3264 47.9027 37.9143 45.7418 39.4288 43.53C40.5565 41.9688 41.4243 40.2433 42 38.4174C40.5358 37.8128 39.2862 36.8008 38.4072 35.5075C37.5281 34.2142 37.0585 32.6969 37.0568 31.1447Z" fill="white"/>
<path d="M32.4311 17.7707C33.8053 16.1601 34.4823 14.09 34.3183 12C32.2189 12.2153 30.2796 13.1949 28.8868 14.7437C28.2059 15.5003 27.6843 16.3805 27.352 17.334C27.0197 18.2875 26.8832 19.2956 26.9502 20.3007C28.0003 20.3113 29.0391 20.089 29.9885 19.6508C30.9379 19.2126 31.773 18.5697 32.4311 17.7707Z" fill="white"/>
<path d="M55.1865 14.0022H58.2913C59.1833 14.0022 59.9238 14.1758 60.5127 14.5229C61.106 14.8701 61.5476 15.3777 61.8376 16.0457C62.1321 16.7092 62.2793 17.5244 62.2793 18.4912C62.2793 19.4536 62.1321 20.271 61.8376 20.9434C61.5432 21.6157 61.0994 22.1277 60.5061 22.4792C59.9172 22.8264 59.179 23 58.2913 23H55.1865V14.0022ZM56.6829 15.2612V21.741H58.1265C58.5703 21.741 58.957 21.675 59.2866 21.5432C59.6162 21.407 59.8865 21.2048 60.0974 20.9368C60.3127 20.6643 60.4731 20.3281 60.5786 19.9282C60.6885 19.5239 60.7434 19.0515 60.7434 18.511C60.7434 17.7903 60.6489 17.1882 60.46 16.7048C60.271 16.2214 59.9832 15.8611 59.5964 15.6238C59.2097 15.3821 58.7197 15.2612 58.1265 15.2612H56.6829ZM67.0122 15.9138C67.6187 15.9138 68.1548 16.0391 68.6206 16.2896C69.0864 16.54 69.449 16.9004 69.7083 17.3706C69.9719 17.8408 70.1038 18.4011 70.1038 19.0515V19.9546C70.1038 20.627 69.9719 21.2004 69.7083 21.675C69.449 22.1453 69.0864 22.5034 68.6206 22.7495C68.1548 22.9956 67.6187 23.1187 67.0122 23.1187C66.397 23.1187 65.8564 22.9956 65.3906 22.7495C64.9292 22.5034 64.5667 22.1453 64.303 21.675C64.0393 21.2048 63.9075 20.6335 63.9075 19.9612V19.0581C63.9075 18.4209 64.0393 17.8672 64.303 17.397C64.5667 16.9268 64.9314 16.562 65.3972 16.3027C65.8674 16.0435 66.4058 15.9138 67.0122 15.9138ZM67.0188 17.0938C66.6672 17.0938 66.3706 17.1838 66.1289 17.364C65.8872 17.5398 65.7026 17.7815 65.5752 18.0891C65.4478 18.3923 65.384 18.7395 65.384 19.1306V19.9084C65.384 20.2996 65.4434 20.6489 65.562 20.9565C65.6851 21.2598 65.8674 21.4993 66.1091 21.675C66.3552 21.8508 66.6584 21.9387 67.0188 21.9387C67.3792 21.9387 67.678 21.8508 67.9153 21.675C68.1526 21.4993 68.3306 21.2598 68.4492 20.9565C68.5723 20.6489 68.6338 20.2996 68.6338 19.9084V19.1306C68.6338 18.7395 68.5701 18.3923 68.4426 18.0891C68.3196 17.7815 68.1372 17.5398 67.8955 17.364C67.6582 17.1838 67.366 17.0938 67.0188 17.0938ZM80.8484 16.0325L79.0159 23H77.5261L76.0693 17.8584H76.0298L74.5994 23H73.103L71.1914 16.0325H72.7668L73.8875 21.3455H73.9534L75.3574 16.0325H76.7351L78.1787 21.3455H78.2446L79.385 16.0325H80.8484ZM82.2986 23V16.0325H83.7356V17.2849H83.8081C83.8696 17.1003 83.9729 16.9026 84.1179 16.6917C84.2673 16.4807 84.4849 16.3005 84.7705 16.1511C85.0562 16.0017 85.4341 15.927 85.9043 15.927C86.603 15.927 87.1677 16.1226 87.5984 16.5137C88.0334 16.9048 88.251 17.498 88.251 18.2935V23H86.7876V18.7219C86.7876 18.366 86.7283 18.0759 86.6096 17.8518C86.4954 17.6233 86.335 17.4541 86.1284 17.3442C85.9219 17.23 85.6802 17.1729 85.4033 17.1729C85.0474 17.1729 84.7463 17.2585 84.5002 17.4299C84.2585 17.5969 84.074 17.8276 83.9465 18.1221C83.8235 18.4165 83.762 18.7527 83.762 19.1306V23H82.2986ZM90.4658 23V13.5276H91.9292V23H90.4658ZM96.9521 15.9138C97.5586 15.9138 98.0947 16.0391 98.5605 16.2896C99.0264 16.54 99.3889 16.9004 99.6482 17.3706C99.9119 17.8408 100.044 18.4011 100.044 19.0515V19.9546C100.044 20.627 99.9119 21.2004 99.6482 21.675C99.3889 22.1453 99.0264 22.5034 98.5605 22.7495C98.0947 22.9956 97.5586 23.1187 96.9521 23.1187C96.3369 23.1187 95.7964 22.9956 95.3306 22.7495C94.8691 22.5034 94.5066 22.1453 94.2429 21.675C93.9792 21.2048 93.8474 20.6335 93.8474 19.9612V19.0581C93.8474 18.4209 93.9792 17.8672 94.2429 17.397C94.5066 16.9268 94.8713 16.562 95.3372 16.3027C95.8074 16.0435 96.3457 15.9138 96.9521 15.9138ZM96.9587 17.0938C96.6072 17.0938 96.3105 17.1838 96.0688 17.364C95.8271 17.5398 95.6426 17.7815 95.5151 18.0891C95.3877 18.3923 95.324 18.7395 95.324 19.1306V19.9084C95.324 20.2996 95.3833 20.6489 95.502 20.9565C95.625 21.2598 95.8074 21.4993 96.0491 21.675C96.2952 21.8508 96.5984 21.9387 96.9587 21.9387C97.3191 21.9387 97.6179 21.8508 97.8552 21.675C98.0925 21.4993 98.2705 21.2598 98.3892 20.9565C98.5122 20.6489 98.5737 20.2996 98.5737 19.9084V19.1306C98.5737 18.7395 98.51 18.3923 98.3826 18.0891C98.2595 17.7815 98.0771 17.5398 97.8354 17.364C97.5981 17.1838 97.3059 17.0938 96.9587 17.0938ZM103.834 23.1055C103.162 23.1055 102.612 22.9143 102.186 22.532C101.764 22.1453 101.553 21.6267 101.553 20.9763C101.553 20.3611 101.762 19.8645 102.179 19.4866C102.601 19.1042 103.214 18.9131 104.019 18.9131H105.779V18.2605C105.779 17.8606 105.66 17.5662 105.423 17.3772C105.185 17.1838 104.867 17.0872 104.467 17.0872C104.203 17.0872 103.986 17.1223 103.814 17.1926C103.643 17.2585 103.509 17.3508 103.412 17.4695C103.315 17.5837 103.247 17.72 103.208 17.8782H101.817C101.839 17.5881 101.909 17.3245 102.028 17.0872C102.151 16.8455 102.322 16.6389 102.542 16.4675C102.766 16.2917 103.041 16.1577 103.366 16.0654C103.696 15.9731 104.078 15.927 104.513 15.927C105.01 15.927 105.464 16.0039 105.877 16.1577C106.291 16.3071 106.62 16.5532 106.866 16.896C107.112 17.2388 107.235 17.7002 107.235 18.2803V23H105.844V22.0969H105.779C105.677 22.2727 105.541 22.4375 105.37 22.5913C105.198 22.7451 104.985 22.8704 104.73 22.967C104.48 23.0593 104.181 23.1055 103.834 23.1055ZM104.282 21.9717C104.563 21.9717 104.816 21.9146 105.04 21.8003C105.264 21.6816 105.442 21.5234 105.574 21.3257C105.71 21.1279 105.779 20.9016 105.779 20.6467V19.8953H104.249C103.823 19.8953 103.511 19.9897 103.313 20.1787C103.12 20.3677 103.023 20.6094 103.023 20.9038C103.023 21.2686 103.151 21.5388 103.406 21.7146C103.665 21.886 103.957 21.9717 104.282 21.9717ZM111.744 15.9402C112.074 15.9402 112.373 15.9863 112.641 16.0786C112.909 16.1665 113.137 16.2961 113.326 16.4675C113.52 16.6389 113.66 16.8433 113.748 17.0806H113.821V13.5276H115.284V23H113.86V21.886H113.788C113.739 22.0662 113.651 22.231 113.524 22.3804C113.396 22.5254 113.24 22.6506 113.056 22.7561C112.871 22.8616 112.667 22.9429 112.443 23C112.219 23.0615 111.979 23.0923 111.724 23.0923C111.188 23.0923 110.722 22.9736 110.327 22.7363C109.931 22.4946 109.624 22.1497 109.404 21.7014C109.189 21.2532 109.081 20.7236 109.081 20.1128V18.9197C109.081 18.3044 109.191 17.7749 109.411 17.3311C109.635 16.8872 109.947 16.5444 110.347 16.3027C110.747 16.061 111.212 15.9402 111.744 15.9402ZM112.153 17.1399C111.828 17.1399 111.546 17.219 111.309 17.3772C111.076 17.531 110.894 17.7573 110.762 18.0562C110.635 18.3506 110.571 18.7087 110.571 19.1306V19.8953C110.571 20.3171 110.635 20.6775 110.762 20.9763C110.894 21.2751 111.081 21.5037 111.322 21.6619C111.564 21.8157 111.852 21.8926 112.186 21.8926C112.515 21.8926 112.801 21.8157 113.043 21.6619C113.289 21.5081 113.48 21.2905 113.616 21.0093C113.752 20.7236 113.821 20.3831 113.821 19.9875V18.9329C113.821 18.5725 113.748 18.2583 113.603 17.9902C113.458 17.7222 113.26 17.5134 113.01 17.364C112.764 17.2146 112.478 17.1399 112.153 17.1399ZM123.319 15.9138C123.926 15.9138 124.462 16.0391 124.928 16.2896C125.394 16.54 125.756 16.9004 126.015 17.3706C126.279 17.8408 126.411 18.4011 126.411 19.0515V19.9546C126.411 20.627 126.279 21.2004 126.015 21.675C125.756 22.1453 125.394 22.5034 124.928 22.7495C124.462 22.9956 123.926 23.1187 123.319 23.1187C122.704 23.1187 122.164 22.9956 121.698 22.7495C121.236 22.5034 120.874 22.1453 120.61 21.675C120.346 21.2048 120.215 20.6335 120.215 19.9612V19.0581C120.215 18.4209 120.346 17.8672 120.61 17.397C120.874 16.9268 121.239 16.562 121.704 16.3027C122.175 16.0435 122.713 15.9138 123.319 15.9138ZM123.326 17.0938C122.974 17.0938 122.678 17.1838 122.436 17.364C122.194 17.5398 122.01 17.7815 121.882 18.0891C121.755 18.3923 121.691 18.7395 121.691 19.1306V19.9084C121.691 20.2996 121.75 20.6489 121.869 20.9565C121.992 21.2598 122.175 21.4993 122.416 21.675C122.662 21.8508 122.966 21.9387 123.326 21.9387C123.686 21.9387 123.985 21.8508 124.222 21.675C124.46 21.4993 124.638 21.2598 124.756 20.9565C124.879 20.6489 124.941 20.2996 124.941 19.9084V19.1306C124.941 18.7395 124.877 18.3923 124.75 18.0891C124.627 17.7815 124.444 17.5398 124.203 17.364C123.965 17.1838 123.673 17.0938 123.326 17.0938ZM128.296 23V16.0325H129.733V17.2849H129.806C129.867 17.1003 129.97 16.9026 130.115 16.6917C130.265 16.4807 130.482 16.3005 130.768 16.1511C131.054 16.0017 131.432 15.927 131.902 15.927C132.601 15.927 133.165 16.1226 133.596 16.5137C134.031 16.9048 134.249 17.498 134.249 18.2935V23H132.785V18.7219C132.785 18.366 132.726 18.0759 132.607 17.8518C132.493 17.6233 132.333 17.4541 132.126 17.3442C131.919 17.23 131.678 17.1729 131.401 17.1729C131.045 17.1729 130.744 17.2585 130.498 17.4299C130.256 17.5969 130.072 17.8276 129.944 18.1221C129.821 18.4165 129.76 18.7527 129.76 19.1306V23H128.296ZM139.911 16.0786V14.3384H141.341V16.0786H142.897V17.2256H141.341V20.9236C141.341 21.3015 141.42 21.5586 141.579 21.6948C141.741 21.8267 142.018 21.8926 142.409 21.8926C142.51 21.8926 142.616 21.8904 142.726 21.886C142.84 21.8772 142.926 21.8706 142.983 21.8662V22.9868C142.926 22.9956 142.796 23.0066 142.594 23.0198C142.396 23.0374 142.214 23.0461 142.047 23.0461C141.484 23.0461 141.045 22.9758 140.728 22.8352C140.416 22.6946 140.199 22.4771 140.076 22.1826C139.953 21.8838 139.891 21.5037 139.891 21.0422V17.2256H138.83V16.0786H139.911ZM144.749 23V13.5276H146.206V17.2849H146.279C146.331 17.1179 146.435 16.929 146.588 16.718C146.742 16.5027 146.964 16.3181 147.254 16.1643C147.549 16.0061 147.929 15.927 148.395 15.927C149.071 15.927 149.627 16.1248 150.062 16.5203C150.502 16.9114 150.721 17.5046 150.721 18.3V23H149.265V18.7285C149.265 18.377 149.203 18.0869 149.08 17.8584C148.961 17.6255 148.797 17.4541 148.586 17.3442C148.375 17.23 148.129 17.1729 147.847 17.1729C147.5 17.1729 147.204 17.2585 146.958 17.4299C146.711 17.5969 146.525 17.8276 146.397 18.1221C146.27 18.4165 146.206 18.7527 146.206 19.1306V23H144.749ZM155.632 23.1187C155.004 23.1187 154.459 22.9956 153.998 22.7495C153.536 22.499 153.18 22.1409 152.93 21.675C152.679 21.2048 152.554 20.6423 152.554 19.9875V19.0449C152.554 18.3857 152.686 17.8232 152.949 17.3574C153.213 16.8916 153.569 16.5356 154.017 16.2896C154.47 16.0391 154.98 15.9138 155.547 15.9138C156.131 15.9138 156.645 16.0435 157.089 16.3027C157.537 16.5576 157.889 16.918 158.144 17.3838C158.399 17.8496 158.526 18.4033 158.526 19.0449V19.8623H154.004V20.2051C154.004 20.7017 154.145 21.1169 154.426 21.4509C154.712 21.7805 155.112 21.9453 155.626 21.9453C155.881 21.9453 156.107 21.9102 156.305 21.8398C156.502 21.7651 156.661 21.6685 156.779 21.5498C156.902 21.4268 156.981 21.2927 157.017 21.1477H158.447C158.425 21.3499 158.353 21.5652 158.229 21.7937C158.111 22.0222 157.937 22.2375 157.709 22.4397C157.485 22.6375 157.199 22.8 156.852 22.9275C156.509 23.0549 156.103 23.1187 155.632 23.1187ZM154.004 18.9065H157.096C157.096 18.8933 157.096 18.8801 157.096 18.8669C157.096 18.8494 157.096 18.8318 157.096 18.8142C157.096 18.4626 157.032 18.1572 156.905 17.8979C156.777 17.6343 156.597 17.4299 156.364 17.2849C156.135 17.1399 155.865 17.0674 155.553 17.0674C155.241 17.0674 154.969 17.1399 154.736 17.2849C154.503 17.4299 154.323 17.6343 154.195 17.8979C154.068 18.1572 154.004 18.4626 154.004 18.8142C154.004 18.8318 154.004 18.8494 154.004 18.8669C154.004 18.8801 154.004 18.8933 154.004 18.9065Z" fill="white"/>
<path d="M56.9414 46H54.2344L59.7422 30.0039H62.7188L68.2148 46H65.4023L63.9844 41.5703H58.3711L56.9414 46ZM61.2422 32.7695H61.1367L58.9688 39.5312H63.3867L61.2422 32.7695ZM75.6075 46.1758C75.0763 46.1758 74.588 46.0977 74.1427 45.9414C73.6973 45.7773 73.3028 45.5547 72.9591 45.2734C72.6231 44.9844 72.3458 44.6523 72.127 44.2773H72.0333V50.1133H69.4317V33.6133H71.963V35.4297H72.0567C72.2286 35.1328 72.4317 34.8633 72.6661 34.6211C72.9083 34.3789 73.1817 34.1719 73.4864 34C73.7911 33.8203 74.127 33.6836 74.4942 33.5898C74.8614 33.4961 75.252 33.4492 75.6661 33.4492C76.5958 33.4492 77.4161 33.6758 78.127 34.1289C78.8458 34.582 79.4083 35.2422 79.8145 36.1094C80.2208 36.9688 80.4239 38.0156 80.4239 39.25V40.3633C80.4239 41.582 80.2208 42.625 79.8145 43.4922C79.4083 44.3594 78.8458 45.0234 78.127 45.4844C77.4083 45.9453 76.5684 46.1758 75.6075 46.1758ZM75.0098 44.0312C75.5567 44.0312 76.0372 43.8867 76.4513 43.5977C76.8731 43.3086 77.2013 42.8789 77.4356 42.3086C77.67 41.7383 77.7872 41.0391 77.7872 40.2109V39.3438C77.7872 38.5469 77.6739 37.8672 77.4473 37.3047C77.2208 36.7422 76.8966 36.3125 76.4747 36.0156C76.0606 35.7188 75.5567 35.5703 74.963 35.5703C74.3614 35.5703 73.838 35.7266 73.3927 36.0391C72.9473 36.3516 72.6036 36.7891 72.3614 37.3516C72.127 37.9062 72.0098 38.5664 72.0098 39.332V40.2109C72.0098 40.9922 72.1309 41.6719 72.3731 42.25C72.6153 42.8203 72.9591 43.2617 73.4044 43.5742C73.8575 43.8789 74.3927 44.0312 75.0098 44.0312ZM88.7541 46.1758C88.2228 46.1758 87.7345 46.0977 87.2892 45.9414C86.8439 45.7773 86.4494 45.5547 86.1056 45.2734C85.7697 44.9844 85.4923 44.6523 85.2736 44.2773H85.1798V50.1133H82.5783V33.6133H85.1095V35.4297H85.2033C85.3752 35.1328 85.5783 34.8633 85.8127 34.6211C86.0548 34.3789 86.3283 34.1719 86.633 34C86.9377 33.8203 87.2736 33.6836 87.6408 33.5898C88.008 33.4961 88.3986 33.4492 88.8127 33.4492C89.7423 33.4492 90.5627 33.6758 91.2736 34.1289C91.9923 34.582 92.5548 35.2422 92.9611 36.1094C93.3673 36.9688 93.5705 38.0156 93.5705 39.25V40.3633C93.5705 41.582 93.3673 42.625 92.9611 43.4922C92.5548 44.3594 91.9923 45.0234 91.2736 45.4844C90.5548 45.9453 89.715 46.1758 88.7541 46.1758ZM88.1564 44.0312C88.7033 44.0312 89.1838 43.8867 89.5978 43.5977C90.0197 43.3086 90.3478 42.8789 90.5822 42.3086C90.8166 41.7383 90.9338 41.0391 90.9338 40.2109V39.3438C90.9338 38.5469 90.8205 37.8672 90.5939 37.3047C90.3673 36.7422 90.0431 36.3125 89.6213 36.0156C89.2072 35.7188 88.7033 35.5703 88.1095 35.5703C87.508 35.5703 86.9845 35.7266 86.5392 36.0391C86.0939 36.3516 85.7502 36.7891 85.508 37.3516C85.2736 37.9062 85.1564 38.5664 85.1564 39.332V40.2109C85.1564 40.9922 85.2775 41.6719 85.5197 42.25C85.7619 42.8203 86.1056 43.2617 86.5509 43.5742C87.0041 43.8789 87.5392 44.0312 88.1564 44.0312ZM98.805 41.5586H101.407C101.43 41.9023 101.528 42.2305 101.7 42.543C101.871 42.8555 102.106 43.1289 102.403 43.3633C102.7 43.5977 103.063 43.7852 103.493 43.9258C103.93 44.0586 104.434 44.125 105.004 44.125C105.692 44.125 106.282 44.0234 106.774 43.8203C107.266 43.6172 107.645 43.3281 107.91 42.9531C108.176 42.5781 108.309 42.1406 108.309 41.6406C108.309 41.0312 108.102 40.5508 107.688 40.1992C107.274 39.8398 106.637 39.5586 105.778 39.3555L103.153 38.6992C102.465 38.5352 101.825 38.2812 101.231 37.9375C100.637 37.5938 100.157 37.1328 99.7894 36.5547C99.4222 35.9688 99.2386 35.2461 99.2386 34.3867C99.2386 33.3633 99.5042 32.5 100.035 31.7969C100.567 31.0938 101.27 30.5625 102.145 30.2031C103.02 29.8359 103.977 29.6523 105.016 29.6523C106.055 29.6523 107.004 29.8359 107.864 30.2031C108.731 30.5625 109.426 31.0898 109.95 31.7852C110.473 32.4727 110.746 33.3164 110.77 34.3164H108.215C108.184 33.8633 108.043 33.4492 107.793 33.0742C107.543 32.6992 107.184 32.3984 106.715 32.1719C106.246 31.9453 105.668 31.832 104.981 31.832C104.067 31.832 103.325 32.0391 102.754 32.4531C102.192 32.8672 101.91 33.4453 101.91 34.1875C101.91 34.7109 102.094 35.1562 102.461 35.5234C102.828 35.8828 103.383 36.1484 104.125 36.3203L106.739 36.9648C107.543 37.1602 108.262 37.4336 108.895 37.7852C109.535 38.1289 110.039 38.5938 110.407 39.1797C110.782 39.7578 110.969 40.5 110.969 41.4062C110.969 42.4609 110.703 43.3555 110.172 44.0898C109.649 44.8164 108.926 45.3711 108.004 45.7539C107.082 46.1289 106.016 46.3164 104.805 46.3164C103.696 46.3164 102.758 46.1719 101.993 45.8828C101.227 45.5938 100.614 45.2148 100.153 44.7461C99.6917 44.2773 99.3519 43.7656 99.1331 43.2109C98.9222 42.6562 98.8128 42.1055 98.805 41.5586ZM114.061 33.6133V30.6016H116.616V33.6133H119.03V35.6992H116.616V42.3086C116.616 42.9805 116.756 43.4375 117.037 43.6797C117.319 43.9141 117.811 44.0312 118.514 44.0312C118.631 44.0312 118.741 44.0312 118.842 44.0312C118.944 44.0234 119.03 44.0156 119.1 44.0078V46C118.998 46.0156 118.834 46.0312 118.608 46.0469C118.381 46.0703 118.135 46.082 117.87 46.082C116.862 46.082 116.08 45.957 115.526 45.707C114.971 45.457 114.58 45.0703 114.354 44.5469C114.135 44.0156 114.026 43.3398 114.026 42.5195V35.6992H112.315V33.6133H114.061ZM126 33.4023C127.188 33.4023 128.188 33.6602 129 34.1758C129.821 34.6836 130.442 35.3789 130.864 36.2617C131.286 37.1445 131.497 38.1523 131.497 39.2852V40.2812C131.497 41.4375 131.286 42.4648 130.864 43.3633C130.442 44.2539 129.821 44.9531 129 45.4609C128.188 45.9609 127.188 46.2109 126 46.2109C124.813 46.2109 123.805 45.9609 122.977 45.4609C122.157 44.9531 121.536 44.2539 121.114 43.3633C120.692 42.4648 120.481 41.4375 120.481 40.2812V39.2852C120.481 38.1602 120.692 37.1562 121.114 36.2734C121.543 35.3906 122.168 34.6914 122.989 34.1758C123.809 33.6602 124.813 33.4023 126 33.4023ZM126 35.4883C125.36 35.4883 124.821 35.6523 124.383 35.9805C123.954 36.3086 123.633 36.7617 123.422 37.3398C123.211 37.9102 123.106 38.5703 123.106 39.3203V40.2695C123.106 41.0117 123.211 41.6719 123.422 42.25C123.633 42.8203 123.954 43.2734 124.383 43.6094C124.813 43.9453 125.352 44.1133 126 44.1133C126.649 44.1133 127.184 43.9453 127.606 43.6094C128.036 43.2734 128.356 42.8203 128.567 42.25C128.778 41.6719 128.883 41.0117 128.883 40.2695V39.3203C128.883 38.5625 128.774 37.8984 128.555 37.3281C128.344 36.75 128.028 36.3008 127.606 35.9805C127.184 35.6523 126.649 35.4883 126 35.4883ZM133.616 46V33.6133H136.217V35.2422H136.311C136.413 34.9844 136.585 34.7148 136.827 34.4336C137.077 34.1523 137.405 33.918 137.811 33.7305C138.217 33.5352 138.706 33.4375 139.276 33.4375C139.448 33.4375 139.604 33.4453 139.745 33.4609C139.893 33.4688 140.03 33.4844 140.155 33.5078V35.8047C140.038 35.7734 139.878 35.75 139.674 35.7344C139.471 35.7188 139.26 35.7109 139.042 35.7109C138.346 35.7109 137.795 35.8438 137.389 36.1094C136.983 36.3672 136.69 36.7188 136.51 37.1641C136.338 37.6094 136.253 38.1094 136.253 38.6641V46H133.616ZM146.411 46.2109C145.309 46.2109 144.352 45.9766 143.54 45.5078C142.727 45.0391 142.098 44.3672 141.653 43.4922C141.208 42.6172 140.985 41.5703 140.985 40.3516V39.0977C140.985 37.9414 141.204 36.9375 141.641 36.0859C142.079 35.2344 142.692 34.5742 143.481 34.1055C144.278 33.6367 145.219 33.4023 146.305 33.4023C147.407 33.4023 148.352 33.6445 149.141 34.1289C149.938 34.6133 150.548 35.2891 150.969 36.1562C151.391 37.0234 151.602 38.043 151.602 39.2148V40.3984H143.551V40.6914C143.551 41.7305 143.813 42.5703 144.337 43.2109C144.86 43.8438 145.563 44.1602 146.446 44.1602C146.883 44.1602 147.274 44.0938 147.618 43.9609C147.962 43.8203 148.247 43.6211 148.473 43.3633C148.708 43.0977 148.88 42.7891 148.989 42.4375H151.462C151.368 42.9375 151.196 43.4141 150.946 43.8672C150.696 44.3203 150.36 44.7227 149.938 45.0742C149.524 45.4258 149.024 45.7031 148.438 45.9062C147.852 46.1094 147.176 46.2109 146.411 46.2109ZM143.551 38.582H149.059C149.059 38.5742 149.059 38.5664 149.059 38.5586C149.059 37.9727 148.946 37.4453 148.719 36.9766C148.493 36.5 148.173 36.1211 147.758 35.8398C147.352 35.5586 146.872 35.418 146.317 35.418C145.762 35.418 145.278 35.5586 144.864 35.8398C144.45 36.1211 144.126 36.5 143.891 36.9766C143.665 37.4453 143.551 37.9727 143.551 38.5586C143.551 38.5664 143.551 38.5742 143.551 38.582Z" fill="white"/>
</svg>
